<svg width="20" height="20" xmlns="http://www.w3.org/2000/svg" xmlns:xlink="http://www.w3.org/1999/xlink">
 <title>code</title>

 <g>
  <title>Layer 1</title>
  <path fill="#e5e5e5" d="m1,10.08l0,-1.16l1.15,0c1.15,0 1.15,0 1.15,-1.15l0,-2.77a7.42,7.42 0 0 1 0.09,-1.3a2,2 0 0 1 0.3,-0.7a1.84,1.84 0 0 1 0.93,-0.68a6.44,6.44 0 0 1 2.12,-0.32l1.18,0l0,1.15l-0.86,0a1.32,1.32 0 0 0 -1.06,0.47a1.71,1.71 0 0 0 -0.36,1.23l0,2.15a3.22,3.22 0 0 1 -0.28,1.72a2,2 0 0 1 -1.26,0.77a2.15,2.15 0 0 1 1.26,0.79a3.26,3.26 0 0 1 0.26,1.72l0,3.15a1.67,1.67 0 0 0 0.38,1.22a1.31,1.31 0 0 0 1.08,0.47l0.87,0l0,1.16l-1.21,0a6.3,6.3 0 0 1 -2.12,-0.29a1.82,1.82 0 0 1 -0.93,-0.71a1.94,1.94 0 0 1 -0.3,-0.72a7.46,7.46 0 0 1 -0.08,-1.28l0,-3.77c0,-1.15 0,-1.15 -1.15,-1.15l-1.16,0zm18,0l0,-1.16l-1.15,0c-1.15,0 -1.15,0 -1.15,-1.15l0,-2.77a7.42,7.42 0 0 0 -0.08,-1.32a2,2 0 0 0 -0.3,-0.73a1.84,1.84 0 0 0 -0.93,-0.68a6.44,6.44 0 0 0 -2.13,-0.27l-1.18,0l0,1.15l0.87,0a1.32,1.32 0 0 1 1.05,0.47a1.71,1.71 0 0 1 0.36,1.23l0,2.15a3.22,3.22 0 0 0 0.28,1.72a2,2 0 0 0 1.26,0.77a2.15,2.15 0 0 0 -1.26,0.79a3.26,3.26 0 0 0 -0.26,1.72l0,3.15a1.67,1.67 0 0 1 -0.38,1.22a1.31,1.31 0 0 1 -1.08,0.47l-0.87,0l0,1.16l1.19,0a6.3,6.3 0 0 0 2.12,-0.29a1.82,1.82 0 0 0 0.93,-0.68a1.94,1.94 0 0 0 0.3,-0.72a7.46,7.46 0 0 0 0.1,-1.31l0,-3.77c0,-1.15 0,-1.15 1.15,-1.15l1.16,0z" id="a"/>
  <use fill="#e5e5e5" id="svg_1" xlink:href="#a" transform="matrix(-1 0 0 1 20 0)"/>
 </g>
</svg>