<svg width="20" height="20" xmlns="http://www.w3.org/2000/svg">
 <title>link</title>

 <g>
  <title>Layer 1</title>
  <path fill="#e5e5e5" id="svg_1" d="m4.83,15l2.91,0a4.88,4.88 0 0 1 -1.55,-2l-1.19,0a3,3 0 1 1 0,-6l3,0a3,3 0 0 1 2.82,4l2.1,0a4.82,4.82 0 0 0 0.08,-0.83l0,-0.34a4.83,4.83 0 0 0 -4.83,-4.83l-3.34,0a4.83,4.83 0 0 0 -4.83,4.83l0,0.34a4.83,4.83 0 0 0 4.83,4.83z"/>
  <path fill="#e5e5e5" id="svg_2" d="m15.17,5l-2.91,0a4.88,4.88 0 0 1 1.55,2l1.19,0a3,3 0 1 1 0,6l-3,0a3,3 0 0 1 -2.82,-4l-2.1,0a4.82,4.82 0 0 0 -0.08,0.83l0,0.34a4.83,4.83 0 0 0 4.83,4.83l3.34,0a4.83,4.83 0 0 0 4.83,-4.83l0,-0.34a4.83,4.83 0 0 0 -4.83,-4.83z"/>
 </g>
</svg>