<svg width="20" height="20" xmlns="http://www.w3.org/2000/svg">
 <title>subscript</title>

 <g>
  <title>Layer 1</title>
  <path fill="#e5e5e5" id="svg_1" d="m13.68,16l-2.42,0a0.67,0.67 0 0 1 -0.46,-0.15a1.33,1.33 0 0 1 -0.28,-0.34l-2.77,-4.44a2.65,2.65 0 0 1 -0.28,0.69l-2.47,3.75a2.22,2.22 0 0 1 -0.29,0.34a0.58,0.58 0 0 1 -0.42,0.15l-2.29,0l4.15,-6.19l-3.98,-5.81l2.42,0a0.81,0.81 0 0 1 0.41,0.09a0.8,0.8 0 0 1 0.24,0.26l2.76,4.24a2.71,2.71 0 0 1 0.33,-0.74l2.27,-3.45a0.69,0.69 0 0 1 0.6,-0.4l2.32,0l-4,5.71l4.16,6.29zm3.82,-4l0.5,0l0,-1l-0.5,0a1.49,1.49 0 0 0 -1,0.39a1.49,1.49 0 0 0 -1,-0.39l-0.5,0l0,1l0.5,0a0.5,0.5 0 0 1 0.5,0.5l0,6a0.5,0.5 0 0 1 -0.5,0.5l-0.5,0l0,1l0.5,0a1.49,1.49 0 0 0 1,-0.39a1.49,1.49 0 0 0 1,0.39l0.5,0l0,-1l-0.5,0a0.5,0.5 0 0 1 -0.5,-0.5l0,-6a0.5,0.5 0 0 1 0.5,-0.5z"/>
 </g>
</svg>