<svg width="20" height="20" xmlns="http://www.w3.org/2000/svg">
 <title>bold</title>

 <g>
  <title>Layer 1</title>
  <path fill="#e5e5e5" id="svg_1" d="m9.93,3a9.34,9.34 0 0 1 2.39,0.27a4.53,4.53 0 0 1 1.62,0.73a2.87,2.87 0 0 1 0.91,1.18a4,4 0 0 1 0.29,1.55a3.09,3.09 0 0 1 -0.14,0.93a2.77,2.77 0 0 1 -0.43,0.83a3.21,3.21 0 0 1 -0.75,0.71a4.56,4.56 0 0 1 -1.09,0.54a4,4 0 0 1 2.1,1.1a2.86,2.86 0 0 1 0.68,2a4,4 0 0 1 -0.34,1.65a3.73,3.73 0 0 1 -1,1.32a4.66,4.66 0 0 1 -1.6,0.87a7,7 0 0 1 -2.19,0.31l-5.38,0l0,-13.99l4.93,0zm-2.06,2.2l0,3.8l1.89,0a5.1,5.1 0 0 0 1.07,-0.1a2.13,2.13 0 0 0 0.78,-0.32a1.44,1.44 0 0 0 0.49,-0.58a2.07,2.07 0 0 0 0.17,-0.87a2.51,2.51 0 0 0 -0.14,-0.89a1.31,1.31 0 0 0 -0.43,-0.59a1.86,1.86 0 0 0 -0.7,-0.35a4.72,4.72 0 0 0 -1,-0.1l-2.13,0zm2.46,9.58a3.24,3.24 0 0 0 1.13,-0.17a1.91,1.91 0 0 0 0.71,-0.45a1.54,1.54 0 0 0 0.37,-0.64a2.66,2.66 0 0 0 0.11,-0.75a2.2,2.2 0 0 0 -0.12,-0.76a1.36,1.36 0 0 0 -0.4,-0.57a1.89,1.89 0 0 0 -0.72,-0.36a4.09,4.09 0 0 0 -1.1,-0.13l-2.44,0l0,3.83l2.46,0z"/>
 </g>
</svg>