<svg width="20" height="20" xmlns="http://www.w3.org/2000/svg">
 <title>help</title>

 <g>
  <title>Layer 1</title>
  <path fill="#e5e5e5" id="svg_1" d="m10,0a10,10 0 1 0 10,10a10,10 0 0 0 -10,-10zm1,16l-2,0l0,-2l2,0l0,2zm2.71,-7.6a2.64,2.64 0 0 1 -0.33,0.74a3.16,3.16 0 0 1 -0.48,0.55l-0.54,0.48c-0.21,0.18 -0.41,0.35 -0.58,0.52a2.54,2.54 0 0 0 -0.47,0.56a2.3,2.3 0 0 0 -0.31,0.75a3.79,3.79 0 0 0 -0.11,1l-1.81,0a8.9,8.9 0 0 1 0.07,-1.25a3.28,3.28 0 0 1 0.25,-0.9a2.79,2.79 0 0 1 0.41,-0.67a4,4 0 0 1 0.58,-0.58c0.17,-0.16 0.34,-0.3 0.51,-0.44a3,3 0 0 0 0.43,-0.44a1.83,1.83 0 0 0 0.3,-0.55a2,2 0 0 0 0.11,-0.72a2.06,2.06 0 0 0 -0.17,-0.86a1.71,1.71 0 0 0 -1,-0.9a1.7,1.7 0 0 0 -0.5,-0.1a1.77,1.77 0 0 0 -1.53,0.68a3,3 0 0 0 -0.5,1.82l-1.88,0a4.74,4.74 0 0 1 0.28,-1.68a3.56,3.56 0 0 1 0.8,-1.29a3.88,3.88 0 0 1 1.28,-0.83a4.59,4.59 0 0 1 1.66,-0.29a4.44,4.44 0 0 1 1.44,0.23a3.51,3.51 0 0 1 1.15,0.65a3.08,3.08 0 0 1 0.78,1.06a3.54,3.54 0 0 1 0.29,1.45a3.39,3.39 0 0 1 -0.13,1.01z"/>
 </g>
</svg>