<svg width="20" height="20" xmlns="http://www.w3.org/2000/svg">
 <title>help</title>

 <g>
  <title>Layer 1</title>
  <path fill="#e5e5e5" id="svg_1" d="m10.06,1c2.94,0 4.94,1.89 4.94,4.53a4.59,4.59 0 0 1 -2.29,4.08c-1.42,0.92 -1.82,1.53 -1.82,2.71l0,0.68l-2.51,0l0,-0.81a3.84,3.84 0 0 1 2,-3.84c1.34,-0.9 1.79,-1.53 1.79,-2.71a2.1,2.1 0 0 0 -2.08,-2.14l-0.17,0a2.3,2.3 0 0 0 -2.38,2.22l0,0.17l-2.54,0a4.71,4.71 0 0 1 4.51,-4.89a5,5 0 0 1 0.55,0z"/>
  <circle fill="#e5e5e5" id="svg_2" r="2" cy="17" cx="10"/>
 </g>
</svg>