<svg width="20" height="14" xmlns="http://www.w3.org/2000/svg">

 <g>
  <title>Layer 1</title>
  <path id="svg_1" d="m17,8.3l0,-2.57l-1.575,-0.264a4.947,4.947 0 0 0 -0.496,-1.2l0.933,-1.285l-1.81,-1.84l-1.31,0.906c-0.38,-0.205 -0.79,-0.38 -1.197,-0.497l-0.262,-1.55l-2.566,0l-0.263,1.578a5.468,5.468 0 0 0 -1.196,0.497l-1.283,-0.905l-1.837,1.81l0.933,1.287c-0.203,0.38 -0.378,0.79 -0.495,1.228l-1.576,0.235l0,2.57l1.575,0.264c0.117,0.438 0.292,0.818 0.496,1.198l-0.933,1.315l1.81,1.812l1.31,-0.936c0.38,0.205 0.79,0.38 1.226,0.497l0.262,1.55l2.566,0l0.263,-1.578a6.13,6.13 0 0 0 1.196,-0.497l1.313,0.935l1.81,-1.812l-0.935,-1.315c0.204,-0.38 0.38,-0.76 0.496,-1.2l1.545,-0.231l0,-0.002zm-7,1.404c-1.487,0 -2.683,-1.2 -2.683,-2.69s1.225,-2.687 2.683,-2.687a2.698,2.698 0 0 1 2.683,2.69a2.678,2.678 0 0 1 -2.683,2.688l0,-0.001z" fill="#e5e5e5"/>
 </g>
</svg>