<svg width="15" height="11" xmlns="http://www.w3.org/2000/svg">

 <g>
  <title>Layer 1</title>
  <path transform="scale(0.75) translate(0, -1.3)" id="svg_1" fill="#e5e5e5" d="m9,1.281c-0.124,0.259 -0.185,0.599 -0.5,0.688c-0.55,0.081 -1.133,0.018 -1.688,0c-0.866,-0.032 -1.733,-0.148 -2.594,0c-0.588,0.157 -0.953,0.727 -1.188,1.25c-0.178,0.416 -0.271,0.836 -0.344,1.281l-2.688,0l0,11.5l20,0l0,-11.5l-16.344,0c0.109,-0.52 0.203,-1.057 0.563,-1.469c0.222,-0.231 0.587,-0.17 0.875,-0.188c1.212,0.003 2.415,0.179 3.625,0.063c0.463,-0.058 0.812,-0.455 0.969,-0.875l0.188,-0.438l-0.875,-0.313l0.001,0.001zm-7.125,5.844l1.563,0c0.094,0 0.188,0.093 0.188,0.188l0,1.531c0,0.094 -0.093,0.188 -0.188,0.188l-1.563,0c-0.094,0 -0.156,-0.093 -0.156,-0.188l0,-1.531c0,-0.094 0.062,-0.188 0.156,-0.188zm2.844,0l1.563,0c0.094,0 0.156,0.093 0.156,0.188l0,1.531c0,0.094 -0.062,0.188 -0.156,0.188l-1.563,0c-0.094,0 -0.156,-0.093 -0.156,-0.188l0,-1.531c0,-0.094 0.062,-0.188 0.156,-0.188zm2.844,0l1.563,0c0.094,0 0.156,0.093 0.156,0.188l0,1.531c0,0.094 -0.062,0.188 -0.156,0.188l-1.563,0c-0.094,0 -0.188,-0.093 -0.188,-0.188l0,-1.531c0,-0.094 0.093,-0.188 0.188,-0.188zm2.813,0l1.563,0c0.094,0 0.188,0.093 0.188,0.188l0,1.531c0,0.094 -0.093,0.188 -0.188,0.188l-1.563,0c-0.094,0 -0.156,-0.093 -0.156,-0.188l0,-1.531c0,-0.094 0.062,-0.188 0.156,-0.188zm2.844,0l1.563,0c0.094,0 0.156,0.093 0.156,0.188l0,1.531c0,0.094 -0.062,0.188 -0.156,0.188l-1.563,0c-0.094,0 -0.156,-0.093 -0.156,-0.188l0,-1.531c0,-0.094 0.062,-0.188 0.156,-0.188zm2.844,0l1.531,0c0.094,0 0.188,0.093 0.188,0.188l0,1.531c0,0.094 -0.093,0.188 -0.188,0.188l-1.531,0c-0.094,0 -0.188,-0.093 -0.188,-0.188l0,-1.531c0,-0.094 0.093,-0.188 0.188,-0.188zm-12.844,3l1.563,0c0.094,0 0.156,0.093 0.156,0.188l0,1.563c0,0.094 -0.062,0.156 -0.156,0.156l-1.563,0c-0.094,0 -0.156,-0.062 -0.156,-0.156l0,-1.563c0,-0.094 0.062,-0.188 0.156,-0.188zm2.906,0l1.563,0c0.094,0 0.188,0.093 0.188,0.188l0,1.563c0,0.094 -0.093,0.156 -0.188,0.156l-1.563,0c-0.094,0 -0.156,-0.062 -0.156,-0.156l0,-1.563c0,-0.094 0.062,-0.188 0.156,-0.188zm2.938,0l1.531,0c0.094,0 0.188,0.093 0.188,0.188l0,1.563c0,0.094 -0.093,0.156 -0.188,0.156l-1.531,0c-0.094,0 -0.188,-0.062 -0.188,-0.156l0,-1.563c0,-0.094 0.093,-0.188 0.188,-0.188zm2.906,0l1.563,0c0.094,0 0.156,0.093 0.156,0.188l0,1.563c0,0.094 -0.062,0.156 -0.156,0.156l-1.563,0c-0.094,0 -0.188,-0.062 -0.188,-0.156l0,-1.563c0,-0.094 0.093,-0.188 0.188,-0.188zm2.906,0l1.563,0c0.094,0 0.156,0.093 0.156,0.188l0,1.563c0,0.094 -0.062,0.156 -0.156,0.156l-1.563,0c-0.094,0 -0.156,-0.062 -0.156,-0.156l0,-1.563c0,-0.094 0.062,-0.188 0.156,-0.188zm-10.875,3.563l12,0c0.088,0 0.156,0.068 0.156,0.156l0,0.844c0,0.088 -0.068,0.156 -0.156,0.156l-12,0c-0.088,0 -0.156,-0.068 -0.156,-0.156l0,-0.844c0,-0.088 0.068,-0.156 0.156,-0.156z"/>
 </g>
</svg>