<svg width="20" height="16" xmlns="http://www.w3.org/2000/svg">
 <g>
  <title>Layer 1</title>
  <path fill="#e5e5e5" d="m9.2,0.825c-0.1,0.207 -0.148,0.479 -0.4,0.55c-0.44,0.065 -0.906,0.015 -1.35,0c-0.693,-0.025 -1.387,-0.118 -2.076,0c-0.47,0.126 -0.762,0.582 -0.95,1a4.323,4.323 0 0 0 -0.275,1.025l-2.15,0l0,9.2l16,0l0,-9.2l-13.077,0c0.087,-0.416 0.163,-0.846 0.45,-1.175c0.178,-0.185 0.47,-0.136 0.7,-0.15c0.97,0.002 1.933,0.143 2.9,0.05c0.371,-0.047 0.65,-0.364 0.776,-0.7l0.15,-0.35l-0.7,-0.251l0.002,0.001zm-5.7,4.675l1.25,0a0.16,0.16 0 0 1 0.15,0.15l0,1.225a0.16,0.16 0 0 1 -0.15,0.15l-1.25,0c-0.075,0 -0.125,-0.074 -0.125,-0.15l0,-1.225c0,-0.075 0.05,-0.15 0.125,-0.15zm2.275,0l1.25,0c0.076,0 0.125,0.074 0.125,0.15l0,1.225c0,0.075 -0.05,0.15 -0.124,0.15l-1.25,0c-0.076,0 -0.126,-0.074 -0.126,-0.15l0,-1.225c0,-0.075 0.05,-0.15 0.125,-0.15zm2.275,0l1.25,0c0.076,0 0.126,0.074 0.126,0.15l0,1.225c0,0.075 -0.05,0.15 -0.125,0.15l-1.251,0a0.161,0.161 0 0 1 -0.151,-0.15l0,-1.225a0.16,0.16 0 0 1 0.15,-0.15l0.001,0zm2.25,0l1.251,0a0.16,0.16 0 0 1 0.15,0.15l0,1.225a0.16,0.16 0 0 1 -0.15,0.15l-1.25,0c-0.075,0 -0.125,-0.074 -0.125,-0.15l0,-1.225c0,-0.075 0.05,-0.15 0.125,-0.15l-0.001,0zm2.276,0l1.25,0c0.076,0 0.125,0.074 0.125,0.15l0,1.225c0,0.075 -0.05,0.15 -0.125,0.15l-1.25,0c-0.075,0 -0.125,-0.074 -0.125,-0.15l0,-1.225c0,-0.075 0.05,-0.15 0.125,-0.15zm2.275,0l1.225,0a0.16,0.16 0 0 1 0.15,0.15l0,1.225a0.16,0.16 0 0 1 -0.15,0.15l-1.225,0a0.161,0.161 0 0 1 -0.15,-0.15l0,-1.225a0.16,0.16 0 0 1 0.15,-0.15zm-10.275,2.4l1.25,0c0.076,0 0.125,0.074 0.125,0.15l0,1.25c0,0.076 -0.05,0.126 -0.125,0.126l-1.25,0c-0.075,0 -0.125,-0.05 -0.125,-0.125l0,-1.251c0,-0.076 0.05,-0.151 0.125,-0.151l0,0.001zm2.325,0l1.25,0a0.16,0.16 0 0 1 0.15,0.15l0,1.25c0,0.076 -0.074,0.126 -0.15,0.126l-1.25,0c-0.075,0 -0.125,-0.05 -0.125,-0.125l0,-1.251c0,-0.076 0.05,-0.151 0.125,-0.151l0,0.001zm2.35,0l1.225,0a0.16,0.16 0 0 1 0.15,0.15l0,1.25c0,0.076 -0.074,0.126 -0.15,0.126l-1.225,0c-0.075,0 -0.15,-0.05 -0.15,-0.125l0,-1.251c0,-0.076 0.074,-0.151 0.15,-0.151l0,0.001zm2.325,0l1.25,0c0.076,0 0.125,0.074 0.125,0.15l0,1.25c0,0.076 -0.05,0.126 -0.125,0.126l-1.25,0c-0.075,0 -0.15,-0.05 -0.15,-0.125l0,-1.251c0,-0.076 0.074,-0.151 0.15,-0.151l0,0.001zm2.325,0l1.25,0c0.075,0 0.125,0.074 0.125,0.15l0,1.25c0,0.076 -0.05,0.126 -0.125,0.126l-1.25,0c-0.075,0 -0.125,-0.05 -0.125,-0.125l0,-1.251c0,-0.076 0.05,-0.151 0.125,-0.151l0,0.001zm-8.7,2.85l9.6,0c0.07,0 0.125,0.055 0.125,0.125l0,0.675c0,0.07 -0.055,0.125 -0.125,0.125l-9.601,0a0.123,0.123 0 0 1 -0.125,-0.125l0,-0.675c0,-0.07 0.054,-0.125 0.125,-0.125l0.001,0z" id="svg_1"/>
  <path stroke="#e5e5e5" stroke-width="1.2" d="m2.719,15.279l14.561,-14.559" id="svg_2" fill="#e5e5e5"/>
 </g>

</svg>