<svg width="20" height="20" xmlns="http://www.w3.org/2000/svg">
 <title>language</title>

 <g>
  <title>Layer 1</title>
  <path fill="#e5e5e5" id="svg_1" d="m20,18l-1.44,0a0.61,0.61 0 0 1 -0.4,-0.12a0.81,0.81 0 0 1 -0.23,-0.31l-0.93,-2.57l-5,0l-1,2.54a0.77,0.77 0 0 1 -0.22,0.3a0.59,0.59 0 0 1 -0.4,0.14l-1.38,0l4.55,-11.47l1.89,0l4.56,11.49zm-3.53,-4.31l-1.58,-4.19a11.62,11.62 0 0 1 -0.39,-1.24q-0.09,0.37 -0.19,0.69l-0.19,0.56l-1.58,4.19l3.93,-0.01zm-6.3,-1.58a13.43,13.43 0 0 1 -2.91,-1.41a11.46,11.46 0 0 0 2.81,-5.37l1.93,0l0,-1.33l-4.69,0a4,4 0 0 0 -0.2,-0.56c-0.24,-0.65 -0.51,-1.44 -0.51,-1.44l-1.47,0.5s0.4,0.89 0.6,1.5l-5.73,0l0,1.33l2.15,0a11.23,11.23 0 0 0 2.85,5.37a17.19,17.19 0 0 1 -5,2.1q0.56,0.82 0.87,1.38a23.28,23.28 0 0 0 5.22,-2.51a15.64,15.64 0 0 0 3.56,1.77l0.52,-1.33zm-6.54,-6.78l4.91,0a8.11,8.11 0 0 1 -2.45,4.45a9.11,9.11 0 0 1 -2.46,-4.45z"/>
 </g>
</svg>