<svg width="20" height="20" xmlns="http://www.w3.org/2000/svg">

 <g>
  <title>Layer 1</title>
  <path id="svg_1" d="m0.002,2.275l0,12.945l8.405,0c0.535,1.624 -0.975,1.786 -1.902,2.505c0,0 2.293,-0.024 3.439,-0.024c1.144,0 3.432,0.024 3.432,0.024c-0.905,-0.688 -2.355,-0.868 -1.902,-2.505l8.527,0l0,-12.945l-20,0l0.001,0zm6.81,1.84l0.797,0l3.313,8.466l-1.043,0l-1.043,-2.638l-3.374,0l-1.043,2.638l-0.982,0l3.375,-8.466zm0.368,1.104c-0.084,0.369 -0.211,0.785 -0.368,1.227l-0.982,2.577l2.699,0l-0.982,-2.577c-0.128,-0.33 -0.234,-0.747 -0.368,-1.227l0.001,0zm7.117,0.982c0.753,0 1.295,0.157 1.656,0.491c0.365,0.334 0.552,0.858 0.552,1.595l0,4.294l-0.675,0l-0.184,-0.859l-0.062,0c-0.315,0.396 -0.605,0.655 -0.92,0.798c-0.311,0.138 -0.758,0.184 -1.227,0.184c-0.626,0 -1.115,-0.168 -1.472,-0.491c-0.353,-0.323 -0.491,-0.754 -0.491,-1.35c0,-1.275 1.028,-1.963 3.068,-2.025l1.043,0l0,-0.429c0,-0.495 -0.091,-0.87 -0.307,-1.104c-0.211,-0.238 -0.574,-0.307 -1.043,-0.307c-0.526,0 -1.115,0.107 -1.779,0.429l-0.307,-0.675a4.748,4.748 0 0 1 1.043,-0.429a4.334,4.334 0 0 1 1.104,-0.123l0.001,0.001zm0.307,3.313c-0.761,0.027 -1.318,0.157 -1.656,0.368c-0.334,0.207 -0.491,0.54 -0.491,0.982c0,0.346 0.1,0.617 0.307,0.798c0.211,0.181 0.544,0.245 0.92,0.245c0.595,0 1.012,-0.164 1.35,-0.491c0.342,-0.326 0.552,-0.762 0.552,-1.35l0,-0.552l-0.982,0z" fill="#e5e5e5"/>
 </g>
</svg>