<svg width="32" height="32" xmlns="http://www.w3.org/2000/svg">

 <g>
  <title>Layer 1</title>
  <path id="svg_1" d="m29.077,29.012c0,1.06 -0.86,1.92 -1.92,1.92l-22.313,0c-1.06,0 -1.92,-0.86 -1.92,-1.92l0,-24.97c0,-1.06 0.86,-1.92 1.92,-1.92l22.313,0c1.06,0 1.92,0.86 1.92,1.92l0,24.97z" fill="#e5e5e5"/>
  <path id="svg_2" d="m5.368,4.054l21,0l0,24.35l-21,0l0,-24.35z" stroke-miterlimit="10" stroke-width="0.5" stroke="#54595d" fill="#e5e5e5"/>
  <path id="svg_3" d="m7.743,8.896l15.625,0l0,2.872l-15.625,0l0,-2.872zm0,6.194l15.625,0l0,2.875l-15.625,0l0,-2.875zm0,6.197l6.125,0l0,2.873l-6.125,0l0,-2.873z" fill="#e5e5e5"/>
  <path id="svg_4" d="m18.646,2.814l0,-1.746l-5.292,0l0,1.746l-2.894,0l0,2.338l11.08,0l0,-2.338" fill="#e5e5e5"/>
 </g>
</svg>