<svg width="15" height="15" xmlns="http://www.w3.org/2000/svg">

 <g>
  <title>Layer 1</title>
  <path id="svg_1" d="m7.5,0.125c-4.06,0 -7.375,3.315 -7.375,7.375c0,4.06 3.316,7.375 7.375,7.375c4.06,0 7.375,-3.316 7.375,-7.375c0,-4.06 -3.315,-7.375 -7.375,-7.375zm0,1.768c3.104,0 5.607,2.504 5.607,5.607s-2.504,5.607 -5.607,5.607s-5.607,-2.503 -5.607,-5.607s2.503,-5.607 5.607,-5.607z" fill="#e5e5e5"/>
  <path id="svg_2" d="m6.708,2.99l0,5.763l3.428,0l0,-1.21l-2.218,0l0,-4.553l-1.21,0z" fill="#e5e5e5"/>
 </g>
</svg>