<svg width="25" height="15" xmlns="http://www.w3.org/2000/svg">

 <g>
  <title>Layer 1</title>
  <g id="svg_1" fill="#222">
   <path fill="#e5e5e5" id="svg_2" d="m5.97,1.625l0,2.688l5.655,0l0,-2.689l-5.655,0l0,0.001zm7.405,0l0,2.688l5.656,0l0,-2.689l-5.655,0l-0.001,0.001zm-7.405,4.531l0,2.688l5.655,0l0,-2.688l-5.655,0zm7.405,0l0,2.688l5.656,0l0,-2.688l-5.655,0l-0.001,0zm-7.405,4.532l0,2.687l5.655,0l0,-2.688l-5.655,0l0,0.001zm7.405,0l0,2.687l5.656,0l0,-2.688l-5.655,0l-0.001,0.001z"/>
  </g>
 </g>
</svg>