<svg width="32" height="32" xmlns="http://www.w3.org/2000/svg">

 <g>
  <title>Layer 1</title>
  <path id="svg_1" d="m3.377,3.377c4.503,-4.503 11.806,-4.503 16.31,0c4.07,4.072 4.415,10.425 1.122,14.936l11.191,11.19l-2.496,2.497l-11.19,-11.19c-4.514,3.292 -10.866,2.947 -14.938,-1.126c-4.503,-4.502 -4.503,-11.805 0,-16.308l0.001,0.001zm2.123,2.123c-3.344,3.34 -3.385,8.763 -0.043,12.105c3.343,3.343 8.806,3.343 12.148,0c3.343,-3.342 3.3,-8.764 -0.04,-12.106c-3.344,-3.343 -8.724,-3.343 -12.066,0l0.001,0.001z" fill="#e5e5e5"/>
 </g>
</svg>